:SAMPLES-PER-SECOND 30
:FULLY-SPECIFIED
:DEGREES
56
root  -9.65339 39.3543 -10.1364 169.923 -62.0306 -173.435
RightUpLeg  -11.0664 -21.6625 2.15048
RightLeg  26.2388 -1.42283 -0.939391
RightFoot  -9.9772 -0.0253744 -3.55504
RightToes  0.00048216 0.542163 -0.142577
Spine  15.5365 -2.72251 9.4743
Spine1  13.0166 -1.15817 0.523418
HEad  12.0893 9.18171 -7.26644
LeftShoulder1  6.77737 -10.7612 -41.1811
LeftArm  -3.86957 5.74079 -32.4484
LeftForeArm  23.2805 -23.3114 -3.80669
LeftHand  -0.25398 0.0180481 5.50724
RightShoulder  4.77792 9.00972 32.24
RightArm  -13.0216 0.7601 34.2689
RightForeArm  11.7473 13.2675 5.26297
RightHand  -0.781698 3.25613 -10.7623
LeftUpLeg  -12.3679 10.2411 9.41154
LeftLeg  57.3221 5.9019 10.3109
LeftFoot  -1.19446 0.356621 -3.91451
LeftToes  1.06245e-005 4.65855e-005 -8.18504e-006
57
root  -10.5484 39.5957 -10.8825 171.353 -61.7935 -174.912
RightUpLeg  -8.18483 -21.245 0.86367
RightLeg  24.6031 -1.63803 -0.32076
RightFoot  -10.7591 -0.0537815 -3.70761
RightToes  0.00048216 0.542163 -0.142577
Spine  15.4764 -2.1675 9.67827
Spine1  12.8571 -0.376263 -0.360193
HEad  12.1442 8.72611 -7.43694
LeftShoulder1  6.79568 -10.8114 -41.1452
LeftArm  -3.56957 7.03531 -32.0547
LeftForeArm  22.3402 -21.9633 -3.80744
LeftHand  -0.25398 0.0180481 5.50724
RightShoulder  4.63747 8.79926 31.7499
RightArm  -12.7155 3.52771 33.6615
RightForeArm  9.78949 14.6004 5.18877
RightHand  -0.884751 3.47777 -11.8537
LeftUpLeg  -16.4017 10.3178 6.61575
LeftLeg  54.5253 7.10178 11.049
LeftFoot  -2.1979 0.250691 -2.96579
LeftToes  1.06245e-005 4.65855e-005 -8.18504e-006
58
root  -11.457 39.8135 -11.6265 172.731 -61.5056 -176.355
RightUpLeg  -5.07895 -19.2652 -0.545896
RightLeg  22.5982 -3.15032 0.370304
RightFoot  -11.6898 -0.0881487 -3.27501
RightToes  0.00048216 0.542163 -0.142577
Spine  15.4612 -1.48711 9.8858
Spine1  12.582 0.542217 -1.44605
HEad  12.1383 8.15014 -7.67433
LeftShoulder1  6.87631 -10.9403 -41.2718
LeftArm  -3.30661 8.43149 -31.5656
LeftForeArm  22.3305 -21.1738 -3.88942
LeftHand  -0.25398 0.0180481 5.50724
RightShoulder  4.5083 8.64006 31.1771
RightArm  -12.011 5.47809 33.1658
RightForeArm  5.38459 16.5204 5.1582
RightHand  -1.04296 3.69209 -13.5827
LeftUpLeg  -19.1786 10.5403 3.9272
LeftLeg  48.1018 7.17557 8.95844
LeftFoot  -3.03193 0.211801 -2.68146
LeftToes  1.06245e-005 4.65855e-005 -8.18504e-006
59
root  -12.3925 39.9307 -12.3558 173.615 -61.3176 -177.239
RightUpLeg  -2.11052 -17.0183 -1.58919
RightLeg  20.7746 -4.90656 1.072
RightFoot  -12.7696 -0.116958 -2.43574
RightToes  0.00048216 0.542163 -0.142577
Spine  15.3523 -0.896676 10.3939
Spine1  12.4579 1.42526 -2.65485
HEad  12.0417 7.53439 -7.78641
LeftShoulder1  6.97054 -11.0812 -41.4471
LeftArm  -2.94588 9.74037 -31.0292
LeftForeArm  22.4156 -20.7053 -3.96644
LeftHand  -0.25398 0.0180481 5.50724
RightShoulder  4.43962 8.60634 30.708
RightArm  -11.1636 7.10743 32.5425
RightForeArm  1.58421 18.3246 5.11084
RightHand  -1.25363 4.42725 -15.0939
LeftUpLeg  -20.6434 11.1777 1.54427
LeftLeg  38.6281 6.23182 5.67673
LeftFoot  -3.16353 0.304671 -3.97921
LeftToes  1.06245e-005 4.65855e-005 -8.18504e-006
60
root  -13.3758 39.9739 -13.0763 173.89 -61.1972 -177.313
RightUpLeg  0.647046 -14.8166 -1.9828
RightLeg  19.049 -6.8613 1.6726
RightFoot  -13.5631 -0.134576 -2.17823
RightToes  0.00048216 0.542163 -0.142577
Spine  14.9866 -0.417483 11.2828
Spine1  12.5157 2.26625 -4.00512
HEad  11.8431 7.03228 -7.73824
LeftShoulder1  7.03836 -11.1935 -41.5379
LeftArm  -2.86214 11.0505 -30.5843
LeftForeArm  22.2728 -20.3095 -4.04686
LeftHand  -0.25398 0.0180481 5.50724
RightShoulder  4.39813 8.59453 30.3966
RightArm  -10.4216 8.64859 31.837
RightForeArm  0.264946 19.6726 5.01634
RightHand  -1.42195 5.30522 -15.725
LeftUpLeg  -20.9873 13.9651 -1.00372
LeftLeg  26.832 5.59552 3.70883
LeftFoot  -2.12771 0.400627 -4.8199
LeftToes  1.06245e-005 4.65855e-005 -8.18504e-006
61
root  -14.3912 39.9885 -13.7997 173.83 -60.9737 -177.094
RightUpLeg  3.51089 -12.786 -1.93258
RightLeg  17.147 -8.76711 2.00428
RightFoot  -14.3487 -0.155824 -2.24149
RightToes  0.00048216 0.542163 -0.142577
Spine  14.6597 0.0283686 11.9502
Spine1  12.801 3.11546 -5.28329
HEad  11.6258 6.77706 -7.63819
LeftShoulder1  7.08348 -11.2664 -41.6028
LeftArm  -3.34255 12.5608 -30.2675
LeftForeArm  22.0446 -20.0398 -4.08968
LeftHand  -0.25398 0.0180481 5.50724
RightShoulder  4.37259 8.60827 30.1409
RightArm  -9.57268 10.1425 31.2343
RightForeArm  0.384613 20.6008 4.93134
RightHand  -1.45817 5.66611 -15.607
LeftUpLeg  -19.9396 16.273 -2.60073
LeftLeg  13.687 9.44791 1.13023
LeftFoot  -0.31836 0.426638 -4.41774
LeftToes  1.06245e-005 4.65855e-005 -8.18504e-006
62
root  -15.4517 39.8807 -14.5412 173.166 -60.8636 -176.641
RightUpLeg  6.6165 -11.8274 -1.84432
RightLeg  15.9072 -9.61214 2.08491
RightFoot  -15.8887 -0.156658 -1.30878
RightToes  0.00048216 0.542163 -0.142577
Spine  14.5528 0.331038 12.0982
Spine1  13.2836 3.70113 -5.98968
HEad  11.5253 6.77768 -7.4868
LeftShoulder1  7.09206 -11.2821 -41.6095
LeftArm  -4.12327 14.1778 -30.1057
LeftForeArm  21.8288 -19.7475 -4.12163
LeftHand  -0.25398 0.0180481 5.50724
RightShoulder  4.38653 8.74812 29.8378
RightArm  -8.54347 11.6609 30.985
RightForeArm  0.521642 21.0006 4.91321
RightHand  -1.40505 5.48311 -15.2987
LeftUpLeg  -17.0569 7.41026 0.945067
LeftLeg  1.2611 26.1955 -5.8519
LeftFoot  0.81006 0.403035 -3.83013
LeftToes  1.06245e-005 4.65855e-005 -8.18504e-006
63
root  -16.6033 39.5742 -15.3239 171.541 -61.3226 -175.51
RightUpLeg  9.6509 -12.68 -1.93035
RightLeg  16.3776 -8.97253 2.01291
RightFoot  -17.9379 -0.110325 0.21478
RightToes  0.00048216 0.542163 -0.142577
Spine  14.3404 0.407162 11.9467
Spine1  13.7325 3.72663 -5.94156
HEad  11.6355 6.83945 -7.09131
LeftShoulder1  7.0409 -11.2653 -41.3364
LeftArm  -4.9199 15.5752 -30.1232
LeftForeArm  21.9196 -18.8878 -4.26818
LeftHand  -0.25398 0.0180481 5.50724
RightShoulder  4.42967 8.95378 29.5877
RightArm  -7.4779 13.019 31.1563
RightForeArm  0.54374 20.926 4.93765
RightHand  -1.3413 5.14146 -15.0768
LeftUpLeg  -16.1233 3.98421 1.6984
LeftLeg  -5.58904 34.4962 -10.3926
LeftFoot  -0.111799 0.421838 -4.2702
LeftToes  1.06245e-005 4.65855e-005 -8.18504e-006
64
root  -17.8078 39.2338 -16.1501 170.24 -62.4792 -174.622
RightUpLeg  12.3492 -15.5562 -2.68967
RightLeg  17.9047 -6.97503 1.66383
RightFoot  -19.4539 -0.067756 0.921896
RightToes  0.00048216 0.542163 -0.142577
Spine  14.0172 0.363595 10.9343
Spine1  14.154 3.45003 -5.41518
HEad  11.9013 6.74171 -6.29954
LeftShoulder1  6.95164 -11.255 -40.8004
LeftArm  -5.89865 16.5429 -30.105
LeftForeArm  22.8529 -17.2558 -4.57378
LeftHand  -0.25398 0.0180481 5.50724
RightShoulder  4.49072 9.08139 29.7149
RightArm  -6.20692 13.6936 31.3604
RightForeArm  0.700396 21.121 4.92991
RightHand  -1.27022 4.79543 -14.7616
LeftUpLeg  -16.1361 3.77505 0.822225
LeftLeg  -5.68156 36.6727 -10.8587
LeftFoot  -0.678537 0.285417 -3.06899
LeftToes  1.06245e-005 4.65855e-005 -8.18504e-006
65
root  -19.0332 38.9413 -17.0038 170.2 -63.5516 -175.037
RightUpLeg  14.6937 -19.9687 -4.59606
RightLeg  20.3548 -3.04278 0.744394
RightFoot  -20.7208 0.0503657 2.2329
RightToes  0.00048216 0.542163 -0.142577
Spine  14.0657 0.584312 8.66614
Spine1  14.4771 3.34141 -4.63528
HEad  12.0452 6.49956 -5.18773
LeftShoulder1  6.87595 -11.2292 -40.3946
LeftArm  -7.13221 16.987 -29.6444
LeftForeArm  24.4117 -15.2944 -4.91877
LeftHand  -0.25398 0.0180481 5.50724
RightShoulder  4.61993 9.19081 30.4355
RightArm  -4.60608 13.4109 31.2031
RightForeArm  1.08714 22.3016 4.89016
RightHand  -1.17646 4.39248 -14.24
LeftUpLeg  -16.3758 5.07209 -0.707612
LeftLeg  -1.75869 35.656 -9.02501
LeftFoot  0.890254 -0.236971 2.11506
LeftToes  1.06245e-005 4.65855e-005 -8.18504e-006
66
root  -20.259 38.6603 -17.8376 171.456 -64.0428 -177.029
RightUpLeg  15.847 -22.2066 -6.89139
RightLeg  24.8931 0.318987 -0.302009
RightFoot  -21.216 0.436034 6.78747
RightToes  0.00048216 0.542163 -0.142577
Spine  14.7871 1.14618 5.57879
Spine1  14.5578 3.43618 -3.91522
HEad  11.7879 6.29333 -4.01182
LeftShoulder1  6.86489 -11.2152 -40.3654
LeftArm  -8.20466 16.8082 -28.5613
LeftForeArm  25.4678 -13.4102 -5.20984
LeftHand  -0.25398 0.0180481 5.50724
RightShoulder  4.85478 9.44989 31.5311
RightArm  -3.55865 12.4562 31.017
RightForeArm  2.28507 24.0081 5.00223
RightHand  -1.1049 4.05933 -13.8483
LeftUpLeg  -18.9751 13.5707 -5.17319
LeftLeg  8.1857 26.5604 -2.28261
LeftFoot  2.10613 -1.01243 8.4809
LeftToes  1.06245e-005 4.65855e-005 -8.18504e-006
67
root  -21.4427 38.4653 -18.5819 173.708 -64.5455 179.929
RightUpLeg  13.9483 -19.5164 -8.23679
RightLeg  33.1375 -0.851217 -0.863475
RightFoot  -17.4575 0.523452 12.5169
RightToes  0.00048216 0.542163 -0.142577
Spine  16.159 1.51001 2.64308
Spine1  14.3128 3.45304 -3.89141
HEad  11.2068 6.19758 -3.14805
LeftShoulder1  6.96925 -11.3906 -40.509
LeftArm  -8.89909 16.0304 -27.1058
LeftForeArm  25.5719 -11.6207 -5.46078
LeftHand  -0.25398 0.0180481 5.50724
RightShoulder  5.11325 9.79576 32.5058
RightArm  -3.52019 11.2315 31.6007
RightForeArm  4.09024 25.107 5.16673
RightHand  -1.08766 3.93371 -13.8122
LeftUpLeg  -21.9985 24.3686 -11.4382
LeftLeg  15.542 14.2154 3.45375
LeftFoot  1.95166 -1.57249 13.3755
LeftToes  1.06245e-005 4.65855e-005 -8.18504e-006
68
root  -22.5595 38.392 -19.1961 176.226 -65.4514 177.024
RightUpLeg  8.50537 -18.2374 -9.64459
RightLeg  45.0629 -1.57434 -2.04323
RightFoot  -6.90541 -0.521808 13.7253
RightToes  0.00048216 0.542163 -0.142577
Spine  17.9228 1.34283 0.895715
Spine1  13.6729 3.27171 -4.71349
HEad  10.5487 6.16802 -3.04972
LeftShoulder1  7.18417 -11.8233 -40.5874
LeftArm  -9.4288 14.7561 -25.7664
LeftForeArm  25.4087 -10.1337 -5.56871
LeftHand  -0.25398 0.0180481 5.50724
RightShoulder  5.27099 10.016 33.0452
RightArm  -3.85871 10.0327 33.0195
RightForeArm  5.45956 25.2049 5.11724
RightHand  -1.04688 3.71567 -13.6064
LeftUpLeg  -22.747 25.1769 -13.1512
LeftLeg  20.1945 12.52 5.55346
LeftFoot  -0.0989244 -1.49568 15.0696
LeftToes  1.06245e-005 4.65855e-005 -8.18504e-006
69
root  -23.5257 38.3259 -19.6906 179.25 -66.5216 173.894
RightUpLeg  0.53731 -16.8586 -10.4984
RightLeg  57.209 -1.9501 -3.69361
RightFoot  5.87879 -1.3491 9.25063
RightToes  0.00048216 0.542163 -0.142577
Spine  20.1416 1.00654 -0.389619
Spine1  13.1005 2.94877 -5.70088
HEad  9.66436 6.16413 -3.93397
LeftShoulder1  7.41452 -12.2901 -40.6576
LeftArm  -10.0987 12.8531 -24.9801
LeftForeArm  25.4974 -9.54709 -5.44906
LeftHand  -0.25398 0.0180481 5.50724
RightShoulder  5.33703 10.1222 33.2246
RightArm  -3.89272 9.34193 34.3126
RightForeArm  6.07009 24.7681 4.98736
RightHand  -0.900896 3.02667 -12.6538
LeftUpLeg  -22.4017 25.1078 -13.8289
LeftLeg  23.414 11.9184 5.91761
LeftFoot  -2.88315 -1.04903 14.3139
LeftToes  1.06245e-005 4.65855e-005 -8.18504e-006
70
root  -24.3476 38.2806 -20.1333 -177.508 -67.7395 170.485
RightUpLeg  -7.26554 -15.0675 -10.8972
RightLeg  65.8246 -1.60433 -4.54192
RightFoot  12.4863 -0.833063 4.22142
RightToes  0.00048216 0.542163 -0.142577
Spine  22.7804 0.769702 -1.81481
Spine1  13.0832 2.41296 -5.97285
HEad  8.12726 6.0328 -5.39776
LeftShoulder1  7.58729 -12.6173 -40.7703
LeftArm  -10.8988 10.0974 -24.9135
LeftForeArm  25.3548 -10.2985 -5.22233
LeftHand  -0.25398 0.0180481 5.50724
RightShoulder  5.43044 10.3257 33.3224
RightArm  -3.10247 9.65392 34.67
RightForeArm  5.84485 24.0974 4.84634
RightHand  -0.743214 2.24581 -11.5188
LeftUpLeg  -21.6405 25.9315 -14.6629
LeftLeg  25.3118 10.1251 5.52311
LeftFoot  -5.11062 -0.687095 13.1496
LeftToes  1.06245e-005 4.65855e-005 -8.18504e-006
